<svg xmlns="http://www.w3.org/2000/svg" width="500" height="500" viewBox="0 0 500 500"><path fill="#103386" d="M241.174 184.201c4.55.454 9.165-.263 13.559.407 1.372.209 4.432 7.439 5.151 8.906a715 715 0 0 1 7.955 16.535c3.971 8.487 8.427 16.766 12.263 25.322 1.293 2.884 2.588 5.698 4.161 8.445-3.501-.475-13.952.17-15.398-.86-.356-1.309-1.141-2.431-1.568-3.505-2.92-7.354-3.654-8.371-11.832-7.589-1.779.171-5.902.065-7.978-.055-2.685-4.106-4.339-8.219-6.893-12.279 5.102.02 12.033-.287 16.97.047-5.469-9.635-9.59-21.047-14.876-30.899-.681-1.27-1.541-3.05-1.514-4.475"/><path fill="#20acd8" d="M233.903 200.258c2.043-.231 11.946-.19 13.704.297.259.373.298.282.271.682-.097 1.439-19.171 41.312-20.339 42.44-4.502.228-9.887.181-14.37-.047.886-3.197 5.545-11.895 7.242-15.397 4.507-9.298 8.91-18.723 13.492-27.975"/><path fill="#20acd8" d="M344.232 302.614c9.442-.115 17.94-1.924 18.051 10.701.265 4.347.343 14.942-5.328 16.11-5.555 1.144-15.05.662-20.944.827.021-1.757.008-3.531.007-5.29l.073-.348c.397-.417.399-.567 1.05-.586 5.93-.182 11.644.099 17.56-.59.264-2.434.646-4.054 1.212-6.455l-2.261 2.441c-4.007.547-8.625.407-12.669.222-3.59-.164-6.411-2.831-6.502-6.471-.213-8.598 1.459-10.185 9.751-10.561m2.243 11.104c1.656.079 2.001.08 3.661-.186.299-.937.405-1.856 1.009-2.44 1.389.474 2.385.772 3.674 1.514l-.041.317c-1.149.207-1.98-.135-2.665.318l-.158.47c1.52.097 3.409.444 4.144-1.122-.625-1.79-1.883-1.282-3.233-2.396 1.337-.067 1.915-.025 2.952-.913l-.006-.39c-1.394-.654-3.259.367-4.633.496-1.053.098-2.068-.983-3.415-.786-1.095.159-1.301.82-2.005 1.751l-.307-.016-.827-1.385c-.736-.375-2.691-.325-3.622-.356.006.908-.151 2.709.322 3.301 1.066-.071 1.707-.11 2.638.405l.017.492-.471.385c-.771-.062-1.133-.148-1.869-.315l-.43.275-.007.415c.924.466 2.67.329 3.608-.086.17-.938.218-2.072.809-2.659l1.337 1.087c.924.234 1.623-.121 2.228.61l-.21.45c-.963.074-1.868-.056-2.416.486zm-7.093-.112c1.366-1.308 1.198-4.427-.968-5.128l-.72.659-.016.362c2.504 2.049.592 1.735 1.704 4.107"/><path fill="#20acd8" d="M350.136 313.532c.299-.937.405-1.856 1.009-2.44 1.389.474 2.385.772 3.674 1.514l-.041.317c-1.149.207-1.98-.135-2.665.318l-.158.47c-.497.022-1.297-.114-1.819-.179"/><path fill="#20acd8" d="M344.811 313.466c.17-.938.218-2.072.809-2.659l1.337 1.087c.924.234 1.623-.121 2.228.61l-.21.45c-.963.074-1.868-.056-2.416.486l-.084.278z"/><path fill="#20acd8" d="M311.204 302.589c3.199-.302 14.598-.673 17.024 1.464 2.043 1.701 2.916 4.29 3.129 6.712 2.072 23.606-7.107 18.741-24.855 19.387-.703.026-.692-.131-1.17-.533l-.08-1.07c-.059-1.571-.009-3.15.019-4.722 3.374.4 15.475.29 18.734-.569.519-1.99.823-3.603 1.182-5.635l-.234.209-.36.315c-2.772 2.474-5.837 1.513-9.331 1.596-2.587.062-5.791.246-8.067-1.107-4.038-2.399-4.441-9.513-1.994-13.143 1.517-2.243 3.536-2.543 6.003-2.904m10.358 11.17 3.031-.18c.009-4.593-.413-5.331-5.389-5.112-1.298.058-2.732.108-4.045.147l-2.27.083c-.77.02-.824.005-1.519.437-.848 1.066-.782 3.65.36 4.18 2.428 1.128 7.129.41 9.832.445"/><path fill="#103386" d="M257.822 302.625c6.358.179 12.902-.289 19.231-.015 6.478.281 8.049 3.35 7.952 9.302-.103 6.326-.963 7.204-6.427 9.763 1.984 2.064 6.273 6.218 7.853 8.307-2.874.042-5.849.247-8.615-.479-1.589-1.373-6.356-6.614-7.679-8.224-1.731-.044-3.171.091-4.935-.122.082-1.723.037-3.793.042-5.545 4.188-.223 8.892.136 12.995-.322-.017-2.132.521-3.89-.088-5.943-1.467-1.461-11.256-.514-14.069-.875-.075 3.9-.357 18.351.131 21.574a182 182 0 0 0-6.729.002c.068-7.842-.53-18.845-.094-26.894z"/><path fill="#103386" d="M135.215 302.553c5.162.121 21.223-.675 24.529 1.197 3.989 2.259 5.958 15.845-4.009 17.703 1.889 1.636 3.723 3.811 5.515 5.587.806.798 1.79 1.541 2.475 2.353l-.111.366c-1.079.245-6.168.138-7.638.147-2.407-2.176-5.695-5.826-7.978-8.227-1.236-.099-3.801.105-4.621-.49a345 345 0 0 1-.204-5.572c1.866-.07 11.205.365 11.892-.739 4.983-8.016-4.815-6.014-9.345-6.131-1.399-.036-2.985-.037-4.212-.062.209 2.538.391 19.783-.452 21.092q-2.985.001-5.969.046c.309-6.525-.153-13.592.006-20.168.039-1.638-.154-5.782.122-7.102"/><path fill="#103386" d="M372.3 302.587c5.269-.291 12.875-.096 18.341-.133-.023 2.172-.013 3.833.144 5.991-2.515.034-17.281-.205-18.65.471-.856 1.276-.771 2.594-.032 3.904 1.65.678 12.62.454 16.001.76 2.57 1.658 3.881 3.376 4.179 6.527.6 6.337-1.442 9.406-7.72 9.845-4.71.086-14.601-.269-18.735.282.07-2.375.054-3.799-.147-6.16 3.059-.109 17.775.029 19.561-.682q.014-1.92.072-3.839c-7.576-.631-11.915.612-18.814-2.698-2.211-4.455-2.221-9.31 1.272-13.09 1.821-.599 2.653-.858 4.528-1.178"/><path fill="#103386" d="M216.172 227.672c.561.267.376.156.833.596.137 3.316-5.333 9.163-7.875 11.207-.358.288-3.42-.315-4.326.419-.042.272-.086.458-.042.739 1.241 8.02 7.415 5.837 8.648 6.693.526 1.09.436 2.369.476 3.619l-4.658-.228c.261 2.462.236 4.762 1.396 6.861 2.071 3.746 4.485 4.645 8.358 5.288 1.614.268 2.476 3.652 3.127 4.983.804 1.643 3.568 2.291 5.248 2.737 2.027 2.955 3.325 5.327 7.226 5.679 2.675.401 4-.329 6.094-1.955 3.579-2.78 2.596-8.871 2.603-13.143l.01-15.794c-.012-3.328-.156-7.23.062-10.483.731-.642 2.791-.913 3.398-.287.341 1.343.206 3.26.18 4.709l.054 19.915c.013 3.73.316 8.754-.403 12.239-1.486 7.211-10.887 10.743-17.017 6.866-1.688-1.068-2.984-3.055-4.281-3.924-4.025-2.698-5.597-3.839-8.165-7.963-4.955-1.369-9.369-4.444-10.821-9.582-.721-2.553-.52-4.852-.412-7.448-4.447-4.444-4.33-4.728-5.04-10.906-.802-.925-2.14-2.113-2.469-3.113 1.134-1.753 6.96 1.491 8.62.744 3.855-1.735 5.486-6.328 9.176-8.468"/><path fill="#103386" d="M214.766 302.548c1.178-.015 5.305-.111 6.225.147.325 1.082.423 2.219.429 3.354.042 7.543.037 15.092.027 22.634-.001.756-.061.7-.51 1.182l-.549-.014c-1.825-.179-3.845.297-5.347-.234-.34-1.29-.168-8.81-.149-10.517-4.613-.17-10.469.069-15.184.112.334 3.308.261 7.336.205 10.664-2.026-.116-4.708-.011-6.782.012.012-8.414.422-19.285-.118-27.427 1.933.161 4.959.061 6.974.055-.456 3.512.254 7.033-.234 10.707 4.964-.067 10.045-.035 15.013-.018q.047-5.329 0-10.657"/><path fill="#103386" d="M116.785 302.334c5.546.423 6.424 7.371 8.855 11.4 2.495 4.135 5.149 12.688 8.12 16.03-2.064.256-5.418.151-7.62.166-.798-1.647-1.495-3.128-2.201-4.816-3.632.111-9.893-.077-13.508-.26 1.124-1.693 1.893-4.365 2.614-5.213 1.224-1.44 5.773.373 7.546-.758.204-.83.008-.753-.53-1.771-.795-1.295-2.801-6.296-3.494-7.939-2.748 4.32-4.509 9.422-6.872 13.777-1.552 2.86-2.39 7.556-5.762 6.957-1.418-.252-2.691.2-4.196-.292l-.039-.419c1.9-4.472 4.236-9.144 6.396-13.512 2.01-4.064 4.233-9.988 7.332-13.103z"/><path fill="#103386" d="m252.461 302.394.518.015c.618.913.257 18.57-.168 21.367-.759 5.001-4.406 5.972-8.801 6.239-21.48 1.305-18.441-3.713-18.507-21.462.084-1.96.037-4.059.028-6.03 2.142.077 4.284.007 6.427-.038.063 4.664-.52 16.786.55 20.851 3.031.75 10.894 1.209 13.583-.111 1.137-1.255.747-18.063.698-20.658q2.838-.02 5.672-.173"/><path fill="#103386" d="M251.059 234.378c1.403.248 1.738.386 3.06.946-.304 3.598-.109 9.61-.119 13.408-.018 6.618-.188 13.729.216 20.318.043.696.689 3.012.883 3.893 5.787 6.22 10.774 3.629 15.08-2.329 4.614-1.196 5.611-3.046 6.958-7.454 8.069-1.067 10.716-4.389 11.058-12.425-1.485.005-2.936.116-4.417.21l.309-3.865c7.591.456 5.665-2.943 8.775-3.952l.848.438c1.304 3.228.102 3.164-1.723 5.751-.318 10.828-2.09 13.098-11.834 17.424-2.523 4.218-3.081 4.341-7.271 7.04-1.635 1.896-2.406 2.715-4.37 4.253-4.457 3.492-14.495 1.637-16.6-3.755-2.69-6.893-.87-18.146-1.172-25.767-.115-2.901-.489-11.463.319-14.134"/><path fill="#103386" d="M189.407 302.395c.286-.062.509.02.834.073.713.979.301 4.681.313 6.333l-.803-.091c-2.485-.296-6.537-.099-9.235-.153.043 6.859.278 14.426.071 21.208-2.118-.005-4.372-.096-6.442.288a292 292 0 0 1 .009-9.365c-.026-3.877-.166-8.366.175-12.175-3.667.251-7.02.203-10.7.173-.111-1.866-.103-3.994-.121-5.872 8.625-.455 17.373.126 25.899-.419"/><path fill="#20acd8" d="M233.981 153.588c3.322-.416 6.946.443 9.362 2.848a12 12 0 0 1 3.08 5.239c.937 3.402.601 15.954.598 19.998l-3.718.15c-.117-2.883-.174-8.134.018-11.502.466-8.184-1.024-15.331-11.456-12.75-3.226.798-4.828 5.321-6.157 8.302-1.395.422-4.363.921-5.895 1.226-9.43 3.426-5.387 13.09-6.528 15.259-.53 1.009-2.835 1.495-3.757 2.25-.944.773-1.743 2.08-2.486 3.07-1.146.204-2.098.513-3.067-.079-1.096-2.521 3.708-6.114 5.572-7.265.202-11.498 2.234-14.643 13.377-17.841 2.184-5.273 5.388-8.019 11.057-8.905"/><path fill="#20acd8" d="M260.58 153.565c1.935-.146 3.88.089 5.725.69 4.071 1.369 6.529 4.78 8.296 8.496 10.792 2.102 13.563 7.492 13.392 17.725 1.962 1.418 5.89 4.837 5.9 7.321l-.239.232c-2.61.274-6.092-3.734-9.687-5.365.651-5.809.98-11.247-4.728-14.686-1.851-1.218-5.617-1.761-7.779-2.069-1.358-5.528-4.202-9.105-10.269-8.991-11.733.222-5.084 21.711-7.78 24.632-.765.345-.706.331-1.539.22-1.84-1.309-1.215-5.021-1.23-7.209-.059-9.218-2.082-18.774 9.938-20.996"/><path fill="#20acd8" d="M289.918 302.61c2.959-.09 6.744-.474 9.232 1.498.996.79 1.503 3.05 1.558 4.729.224 6.809.409 13.992.167 20.813l-.367.436-.84.032c-1.825-.035-3.698-.023-5.527-.033-.256-6.923-.12-14.596-.13-21.577q-3.061.078-6.123.015c.424-1.855.714-4.718 2.03-5.913"/><path fill="#20acd8" d="M190.596 186.857c2.446.26 3.006 1.473 4.303 3.326 3.275-.21 7.504-.14 10.846-.154 1.936 1.384 4.604 4.226 6.125 6.107l.448 3.212c5.929-.167 4.981 1.335 9.009 5.081l.237.217c2.13.351 5.462-.38 6.628.564.277.876-.24 1.828-.577 2.74-2.313.14-4.633.132-6.946-.023-2.112-1.054-3.724-3.521-5.301-5.409-2.105.001-3.473.012-5.548.255a159 159 0 0 0-.334-4.246c-1.501-1.957-3.076-3.712-4.591-5.633-3.171-.059-6.615.05-9.807.096-2.897 3.322-4.47 3.936-8.563 2.108-1.228-2.109-1.081-2.591-.994-4.995 1.722-2.594 1.872-2.969 5.065-3.246"/><path fill="#20acd8" d="M305.716 187.061c7.714-.944 8.183 8.171 2.11 8.98-2.056.274-3.869-1.324-5.351-2.63-3.612-.439-6.202-.505-9.843-.38-3.329 4.197-4.763 3.496-4.869 9.472-9.701.168-4.701 1.206-10.719 5.178-1.618.365-6.478.589-7.695-.532-.325-.67-.516-.91-.468-1.656 1.055-1.133 5.788-.204 6.763-.686 2.145-1.061 2.309-3.084 4.866-4.91 1.93-.234 4.106.476 5.351-.901.286-.961.006-1.822-.182-2.839 1.465-1.619 4.649-5.167 6.383-6.122 3.116.288 7.41.203 10.6.221.996-1.698 1.234-2.357 3.054-3.195m1.902 6.414a1.97 1.97 0 0 0 1.255-3.238 1.972 1.972 0 1 0-1.255 3.238"/><path fill="#20acd8" d="M277.626 222.129q3.25-.174 6.503-.18c3.236 1.74 5.628 5.624 6.886 6.74 1.588 1.408 15.755.821 18.028.526 2.819-4.89 10.287-3.474 8.977 3.478-1.058 2.133-3.073 3.333-5.514 2.759-1.871-.44-2.433-1.388-3.368-2.951-5.948-.014-12.953.234-18.783-.073-2.662-2.024-3.985-5.365-6.942-7.013-1.617-.902-5.226.702-6.051-2.008-.199-.652-.054-.789.264-1.278"/><path fill="#20acd8" d="m212.963 222.054.674-.028c1.453-.053 5.562-.437 6.526.46.099 3.162-2.625 2.376-4.861 2.598-4.743.471-5.316 7.71-10.865 7.188-.991-.093-3.14.035-4.205.062q-5.853.113-11.7.415c-1.819 2.261-2.234 2.474-4.921 3.119-.964-.279-2.252-.675-2.975-1.401-3.016-3.029-.754-8.628 3.723-8.003 2.217.31 3.198 1.401 4.496 3.031 4.128-.316 12.263-.037 16.748-.011 2.608-2.563 4.521-6.104 7.36-7.43"/><path fill="#1974b8" d="M237.824 234.006c.769.028 1.264-.059 1.832.427.293 1.415.164 12.248.081 14.045-2.37 3.052-5.419 5.076-8.202 8.915l-.207 2.979 1.955 1.77c1.12 4.271.91 6.691-4.096 6.897-4.144-.389-4.038-3.128-3.616-6.519.939-.768 1.58-1.165 2.591-1.807.088-1.526.086-3.293.121-4.84 2.419-2.98 6.264-5.696 8.285-8.833 1.03-1.599.006-9.184.277-11.326.147-1.161.078-.887.979-1.708"/><path fill="#1e96cd" d="M258.074 234.375c.708.133 1.675.029 2.412-.014.354 4.043-.069 9.43.596 13.216 1.655 1.425 6.481 6.568 7.85 8.205l.403 4.618q1.306 1.026 2.583 2.088c.151.86.497 1.988.734 2.852a23 23 0 0 1-.478 1.13c-.747 1.6-1.665 2.043-3.233 2.61-1.757.264-2.479-.101-4.127-.686-1.355-2.127-1.328-2.29-1.303-4.721.879-1.54 2.956-3.205 2.939-4.48-.04-3.012-6.132-7.798-8.242-10.108l-.208-.231c-.21-1.859-.397-13.16.074-14.479"/><path fill="#20acd8" d="M274.546 339.312c2.853-.203 6.333-.413 9.075.21 2.079.473 2.299 4.161 2.216 5.899-.103 2.14.062 4.271-2.028 5.344-1.553.287-3.158.155-4.637.341-7.715.97-6.545-3.985-6.415-9.858.71-.974.86-1.18 1.789-1.936m1.052 9.306c2.224.018 4.745.154 6.904.113.99-1.579.206-5.047.249-7.146-2.536.176-4.667.134-7.195.093.021 2.16.122 4.82.042 6.94"/><path fill="#20acd8" d="M237.593 339.295c2.712-.117 6.95-.355 9.487.214 2.515.564 2.021 7.911 1.355 9.821-.361 1.036-.711 1.062-1.566 1.441-2.876.475-7.27.229-10.153-.107a21.5 21.5 0 0 1-.826-7.64c.153-1.891.281-2.561 1.703-3.729m1.213 9.488q3.208-.057 6.415-.022c.621-.426.701-.286.786-1.021.231-1.987-.117-4.305.012-6.254-2.244.247-4.045.163-6.288.106-.476.159-.904.176-1.006.511-.537 1.769.051 4.757.081 6.68"/><path fill="#103386" d="M294.925 195.609c.406-.061.203-.053.68.218.39 1.275-.508 3.591-.26 3.886 4.322 5.12 8.004 6.886 8.662 14.297.506 5.708-2.684 7.631-1.972 12.641l.053.356-3.361.005c-.307-1.179-.543-3.083-.927-4.624 1.337-1.839 2.309-3.362 2.527-5.707.54-5.805-3.863-13.498-9.84-14.315.813-2.014 1.19-4.327 2.24-6.057.384-.631 1.405-.595 2.198-.7"/><path fill="#103386" d="M201.752 195.358c.55.02 1.512.035 1.981.256 1.685.795 2.252 4.689 2.672 6.494q-.757.411-1.5.845c-5.059 2.964-8.979 8.193-7.664 14.389.399 1.879 1.333 3.342 2.316 4.952-.265 1.247-.399 2.886-.545 4.179-.189.46-.14.314-.532.692-1.149.075-1.228.079-2.337-.178-.8-1.112-.165-3.122-.511-3.999-1.238-3.136-2.33-5.631-2.083-9.127a16.39 16.39 0 0 1 5.336-11.072c4.682-4.183 2.677-1.237 2.857-7.174z"/><path fill="#20acd8" d="M274.652 174.491c2.289-.25 5.105.673 5.464 3.259.627 4.527-1.011 5.284-5.21 5.26-2.409-.013-3.292 1.451-4.728 3.102-.475 3.548.632 5.746-1.674 8.577-1.577.542-5.387.975-5.785-1.254l.463-.612c1.048-.574 2.142-.406 3.382-.384.044-2.52.183-4.744.171-7.34 1.264-1.519 2.731-2.706 4.225-3.995.193-1.837.306-2.969.737-4.752 1.217-1.127 1.342-1.231 2.955-1.861"/><path fill="#20acd8" d="M220.97 174.516c4.511-.344 4.931 3.253 5.328 6.585.972 1.056 2.893 2.397 4.2 3.71.61 2.948.574 4.418.384 7.44 1.479-.098 2.945-.538 3.627.995-.308 1.286-1.509 2.16-2.824 2.13-5.196-.962-3.668-4.7-4.242-9.011-.655-.897-1.958-2.297-2.972-2.822-1.867-.967-5.726.613-6.798-1.842-.587-1.347-.563-3.697-.096-5.093.427-1.276 2.254-1.713 3.393-2.092"/><path fill="#103386" d="M291.421 213.333c4.137-.302 5.086.755 6.502 4.442l-.777 2.563c-2.897 2.103-3.21 2.017-6.735 1.543-.507-.691-1.046-1.528-1.536-2.247-2.08.082-4.083.055-6.159.034-2.219-.12-9.774 1.029-8.059-3.344 1.729-.379 11.769-.317 14.175-.267l.129-.181.22-.299c.878-1.204.979-1.456 2.24-2.244"/><path fill="#20acd8" d="M263.276 162.77c2.786.582 5.14 1.645 4.623 5.296-.241 1.701-1.372 2.608-2.785 3.497-.742 8.607 2.258 8.792-4.654 15.473-1.438-.237-1.87-.888-1.878-2.269.427-.965 1.471-1.904 2.273-2.581 1.78-1.501 1.156-7.656 1.105-10.214-3.024-2.817-3.717-3.59-2.384-7.554 1.45-1.016 1.97-1.269 3.7-1.648m.351 6.253a1.896 1.896 0 1 0-.348-3.775 1.896 1.896 0 0 0 .348 3.775"/><path fill="#20acd8" d="m233.154 162.761.085-.002c1.459-.049 2.066.271 3.439.748 1.206 1.537 1.371 2.169 1.939 3.975l-.804 2.424-2.168 1.652c-.212 2.194-.169 8.416.208 10.564 2.355 1.529 3.448 1.921 2.102 4.737-6.962-2.151-5.823-9.7-5.454-15.448-3.091-1.52-3.054-2.588-2.954-5.819 1.311-1.837 1.5-2.102 3.607-2.831"/><path fill="#103386" d="m203.219 213.279.498-.024c4.923-.196 2.619 2.846 7.774 2.877 4.006.024 7.912-.072 11.916-.257-.475 1.289-.961 2.236-1.569 3.454-1.287.131-2.794.126-4.102.158-2.949-.024-5.962-.105-8.88.269-3.234 4.727-10.959 3.009-8.083-5.033.794-.504 1.631-.971 2.446-1.444"/><path fill="#103386" d="M279.634 228.218c5.388.966 5.84 4.109 9.688 7.829l.25.239q2.102.04 4.203-.038c1.384-1.025 3.139-2.251 4.829-1.154l.115.585c-.63 1.402-1.774 1.885-3.105 2.609 1.73 1.748 3.384 3.987 5.34 5.362 1.292.005 2.856-.102 4.17-.161.104 1.313-.054 1.896-.292 3.163-.705-.092-3.648.016-4.892-.056-1.96-1.248-5.713-5.136-7.077-7.042a207 207 0 0 0-4.857-.168c-2.92-2.443-6.817-7.737-8.372-11.168"/><path fill="#1e96cd" d="m232.8 239.108.43.173c.389.593.348 5.504.38 6.584-1.529 1.986-5.023 5.2-6.915 7.037-.148 1.436-.147 2.582-.907 3.869-1.55 2.625-4.239 2.814-6.765 1.231-1.669-1.857-1.494-2.849-1.466-5.223 2.05-2.948 3.561-3.009 6.875-2.16 1.945-1.788 4.818-4.114 6.03-6.45.88-1.694 1.151-3.395 2.338-5.061"/><path fill="#20acd8" d="M278.666 187.285q.264-.017.529-.028c4.174-.161 7.61 3.76 4.345 7.364-1.442 1.591-4.283 1.396-6.312 1.345-1.62 2.427-3.028 4.209-5.515 5.78-2.244.371-5.055.922-5.741-1.879-.154-.63-.162-.301.145-.852 1.643-.696 2.025-.249 3.581-.438 1.8-.219 4.415-3.281 5.46-4.707l.205-.283c.161-3.155.287-4.737 3.303-6.302"/><path fill="#20acd8" d="M216.537 187.267c1.899.006 2.558.377 4.195 1.282.498.962.758 1.283.922 2.368q.124.846.299 1.682c.591 2.822 2.84 4.369 5.232 5.901 1.765.085 3.252-.274 4.286 1.335-.055 1.711-1.686 2.255-3.184 2.314l-.445-.046c-3.367-.32-5.135-3.435-7.835-5.882-5.187-.049-6.525.138-7.244-5.268l1.082-2.167c1.138-.836 1.38-1.038 2.692-1.519"/><path fill="#20acd8" d="M264.562 240.377c1.251.797 1.541 3.612 2.488 4.722 1.644 1.928 4.099 3.97 6.002 5.667 5.468-1.683 8.968 1.67 6.124 6.967-2.196 1.471-3.854 1.134-6.38.919-1.24-2.257-1.288-2.939-1.62-5.426-2.287-2.495-4.288-4.346-6.796-6.632-.139-1.74-.093-4.505.182-6.217"/><path fill="#20acd8" d="M294.546 339.337c1.83-.255 9.911-.788 10.449 1.146-1.704 1.572-6.957 1.099-9.362 1.053a51.4 51.4 0 0 1-.172 7.004c2.124-.009 5.464 1.032 6.882-.584.147-.99.231-.546-.183-1.391-.935-.509-1.835-.119-3.326-.329l-.261-.04c-.342-.54-.227-.708-.172-1.381 1.135-1.562 4.33-1.316 5.984-.798 1.006 1.229.912 5.285-.111 6.533-1.272.763-9.868.753-10.505-.433-1.279-2.386-1.564-8.863.777-10.78"/><path fill="#20acd8" d="M328.775 338.933c.476.104 1.086.252 1.48.557 1.482 1.146 6.564 10.287 5.616 11.604-2.139.163-2.652-.714-3.709-2.35-1.192-.132-2.279-.159-3.474-.201-1.55-.007-1.052-.497-2.227-.294-.805.611-1.883 4.829-4.006 2.532-.246-1.261 3.683-9.23 4.854-10.73.324-.415.996-.851 1.466-1.118"/><path fill="#20acd8" d="M184.17 339.127c2.013.052 5.246-.549 6.28 1.394l-.198.509c-1.937 1.261-6.001.104-8.56 1.072-.585.722-.414.291-.299 1.42 1.215 1.306 6.225.053 8.105 1.184.342.79.335.407.073 1.186-2.3 1.579-6.981-.451-8.72 1.342l.391.908c1.752 1.41 7.799-.185 9.255 1.595l-.187.479c-1.393 1.056-9.36 1.152-10.724.027-.826-2.199-.904-8.265-.235-10.464.979-.873 3.471-.658 4.819-.652"/><path fill="#20acd8" d="M216.329 338.842c3.046.556 7.391 6.413 9.474 8.797-.118-2.091-.82-7.054.772-8.433.897-.141.509-.233 1.222.171.466 2.358.886 10.318-.25 12.295-3.617-1.366-6.704-6.109-9.724-9.232.36 2.195 1.554 7.262-.3 8.719-1.11-.004-.722.21-1.347-.374-.332-1.669-.671-10.588.153-11.943"/><path fill="#103386" d="M208.381 205.389c1.952-.269 4.699 3.838 6.448 5.198 3.744-.023 7.609-.188 11.328-.028-.924 1.94-1.074 3.274-3.345 3.432-2.822-.053-6.753-.223-9.458-.002l-5.111-5.482c-1.48.022-2.97.226-3.66-1.397.438-1.916 2.27-1.702 3.798-1.721"/><path fill="#103386" d="M290.252 205.365c1.326.024 1.974.119 2.505 1.386-.44 1.671-3.004 1.566-3.831 2.343-1.649 1.548-2.034 2.951-4.164 4.341-2.292.345-8.241.322-10.825.379l-1.057-.112c-.794-.692-1.406-2.252-1.957-3.284 3.136.175 6.317.075 9.436.123 6.333.097 3.724-4.992 9.893-5.176"/><path fill="#20acd8" d="M201.286 339.108c2.125.056 5.807-.213 7.406.967l.053.46c-1.438 1.653-6.704 1.17-8.763 1.083.17 2.25.085 4.828.064 7.109 1.641-.117 4.227.024 5.937.066 1.144.083 2.126-.099 2.576 1.049-1.207 1.946-7.232 1.041-9.283.956-3.038-.125-2.267-8.604-1.588-10.446 1.084-1.235 1.955-1.099 3.598-1.244"/><path fill="#20acd8" d="M306.265 241.376c1.522-.496 3.826-1.218 5.268-.238 6.116 4.152-2.395 13.952-6.701 5.514.238-1.267.396-1.85.292-3.163z"/><path fill="#20acd8" d="m256.915 338.912 1.231.097c1.862 1.529.327 6.586.829 8.832.505 2.263 4.676-.228 7.321 1.4.422.94.319.434.112 1.599-2.942.298-6.827.146-9.785-.001-.406-2.24-.932-10.129.292-11.927"/><path fill="#20acd8" d="M164.987 341.522c-1.561.258-4.6.876-5.321-1.156.824-2.098 7.296-.976 9.469-1.242 1.492-.182 4.279-.257 3.066 2.073-1.239 1.006-3.251.599-4.928.505-.452-.181-1.799-.288-2.286-.18"/><path fill="#20acd8" d="M314.042 338.893c.216.068.651.145.707.33.899 3.004.666 7.837.47 11.009-.052.847-.757 1.123-1.234 1.438-2.104-1.481-.875-6.796-1.072-9.265-.131-1.638-.033-2.422 1.129-3.512"/><path fill="#20acd8" d="M164.987 341.522c.487-.108 1.834-.001 2.286.18.4 1.949 1.029 8.691-1.225 9.399l-.573-.32c-1.197-1.909-.909-7.142-.488-9.259"/></svg>