<svg xmlns="http://www.w3.org/2000/svg" xlink="http://www.w3.org/1999/xlink" viewBox="0 0 105.46 100"><defs><linearGradient id="aea0a744f-d118-4a75-af51-10123d2acb63" x1="106.93" y1="49.75" x2="76.88" y2="50.03" gradientUnits="userSpaceOnUse"><stop offset="0" stop-color="#38b6ff"/><stop offset="1" stop-color="#004aad"/></linearGradient><linearGradient id="b24df960f-0695-4647-a205-08a10fc413f1" x1="-2.93" y1="50.25" x2="28.81" y2="49.97" href="#aea0a744f-d118-4a75-af51-10123d2acb63"/><linearGradient id="c8ec5d099-096f-4e20-b4bb-e3cb7f3845f0" x1="53.29" y1="45.23" x2="52.16" y2="100.84" href="#aea0a744f-d118-4a75-af51-10123d2acb63"/><linearGradient id="d5690b04d-1763-4d8b-b9f4-263b0df15fea" x1="53.58" y1="-3.7" x2="51.62" y2="67.07" href="#aea0a744f-d118-4a75-af51-10123d2acb63"/></defs><path d="M79.78 19.78L84 27.07l-2 3.42 15.3 8.83v21.36L82 69.51l2 3.42-4.21 7.29 25.68-14.83V34.61z" fill="url(#aea0a744f-d118-4a75-af51-10123d2acb63)"/><path d="M23.45 69.51L8.16 60.68V39.32l15.29-8.83-2-3.42 4.21-7.29L0 34.61v30.78l25.68 14.83-4.21-7.29z" fill="url(#b24df960f-0695-4647-a205-08a10fc413f1)"/><path d="M82.26 69.93l-.26-.42L70.75 50l-2.39-4.14H37.1L34.71 50 23.45 69.51l-2 3.42 4.21 7.29L37.1 100h31.26l10.83-18.75.59-1L84 72.93zM72 77.11l-8.43 14.61H41.88l-8.54-14.8-2.31-4 3.55-6.14 7.3-12.65h21.69l7.31 12.65.08.15 3.46 6-2.3 4z" fill="url(#c8ec5d099-096f-4e20-b4bb-e3cb7f3845f0)"/><path d="M79.78 19.78l-.59-1L68.36 0H37.1L25.68 19.78l-4.21 7.29 2 3.42L34.71 50l2.39 4.14h31.26L70.75 50 82 30.49l.25-.42 1.73-3zM71 33.06l-.08.15-7.35 12.65H41.88l-7.3-12.65L31 27.07l2.31-4 8.54-14.8h21.72L72 22.89l.11.19 2.3 4z" fill="url(#d5690b04d-1763-4d8b-b9f4-263b0df15fea)"/></svg>